<?xml version="1.0" standalone="no"?>
<!DOCTYPE svg PUBLIC "-//W3C//DTD SVG 20010904//EN"
 "http://www.w3.org/TR/2001/REC-SVG-20010904/DTD/svg10.dtd">
<svg version="1.0" xmlns="http://www.w3.org/2000/svg"
 width="400.000000pt" height="400.000000pt" viewBox="0 0 400.000000 400.000000"
 preserveAspectRatio="xMidYMid meet">
<metadata>
Created by potrace 1.14, written by Peter Selinger 2001-2017
</metadata>
<g transform="translate(0.000000,400.000000) scale(0.100000,-0.100000)"
fill="#000000" stroke="none">
<path d="M1435 3991 c-3 -2 -27 -6 -53 -7 -26 -1 -72 -5 -102 -9 -30 -4 -66
-8 -80 -10 -14 -2 -38 -5 -55 -8 -16 -3 -47 -8 -67 -11 -44 -7 -200 -42 -245
-55 -18 -5 -48 -6 -70 -1 -60 14 -96 21 -123 25 -14 2 -36 6 -50 9 -27 6 -162
17 -245 20 -79 3 -113 -13 -105 -49 1 -5 3 -15 4 -22 2 -14 14 -28 24 -29 4 0
14 -4 22 -7 8 -3 45 -8 81 -10 92 -6 199 -58 199 -97 0 -7 3 -10 7 -7 8 9 28
-36 53 -115 15 -48 18 -90 16 -245 -2 -202 -4 -210 -62 -290 -13 -17 -24 -35
-24 -38 0 -4 14 -28 31 -53 17 -26 32 -51 33 -57 1 -5 7 -19 13 -30 6 -11 11
-59 12 -107 l2 -87 -56 -17 c-30 -10 -55 -21 -55 -26 0 -4 -6 -8 -13 -8 -21 0
-128 -59 -212 -118 -88 -61 -247 -214 -289 -278 -25 -39 -27 -47 -24 -140 l3
-99 35 68 c19 37 43 78 55 90 11 12 19 24 19 27 -5 17 182 210 203 210 8 0 11
5 8 10 -3 6 -2 10 2 10 10 0 44 25 74 53 11 9 19 15 19 12 0 -8 93 56 102 69
5 7 8 7 8 1 0 -6 3 -6 8 1 7 11 78 47 100 50 8 2 12 -13 12 -44 2 -470 -2
-1154 -6 -1172 -3 -14 -6 -40 -8 -57 -5 -45 -58 -151 -92 -188 -56 -58 -154
-102 -235 -104 -49 -2 -91 -56 -69 -90 4 -7 22 -14 39 -15 17 0 31 -5 31 -10
0 -4 6 -4 13 1 12 10 53 15 134 17 24 0 43 3 43 6 0 3 14 7 30 8 46 4 198 40
256 62 29 10 55 16 58 13 3 -4 6 -2 6 4 0 18 26 22 51 9 13 -7 29 -14 34 -15
6 -2 17 -6 25 -8 8 -3 26 -9 40 -14 14 -5 36 -11 50 -13 14 -3 26 -5 28 -7 1
-1 5 -2 10 -3 4 -1 12 -4 17 -7 6 -4 18 -5 28 -4 9 2 17 0 17 -4 0 -4 15 -8
33 -9 33 -3 72 -9 72 -12 0 -1 11 -3 25 -5 14 -1 50 -6 80 -10 74 -10 140 -13
161 -8 37 10 25 91 -14 94 -12 1 -19 2 -67 14 -14 4 -32 8 -40 9 -8 1 -28 8
-43 14 -16 7 -33 12 -38 12 -5 0 -9 5 -9 12 0 6 -3 8 -7 4 -7 -7 -124 110
-121 122 1 4 -6 24 -15 45 -16 37 -25 72 -32 132 -3 26 -7 1223 -4 1250 0 6 0
27 -1 47 -1 30 2 37 17 37 57 0 195 11 203 16 6 3 10 3 10 -2 0 -4 35 -9 78
-10 43 0 94 -4 113 -8 19 -3 47 -8 62 -10 15 -3 35 -9 45 -14 9 -4 25 -7 35
-6 9 2 17 0 17 -5 0 -4 21 -15 46 -25 43 -16 187 -145 182 -163 -1 -4 5 -20
13 -37 39 -75 49 -170 37 -340 -3 -37 -1 -40 21 -37 29 4 43 17 65 60 9 18 19
32 21 32 6 0 -6 -63 -15 -75 -4 -5 -11 -21 -15 -34 -15 -49 -108 -129 -171
-146 -16 -4 -36 -10 -44 -12 -8 -2 -50 -6 -93 -8 -109 -5 -180 16 -243 72 -33
30 -80 93 -68 93 3 0 2 6 -4 13 -21 26 -30 118 -17 187 7 40 44 110 59 110 5
0 6 3 3 7 -7 7 59 55 83 61 67 14 122 5 160 -28 13 -11 21 -20 19 -21 -2 0
-13 -2 -25 -3 -20 -2 -77 -36 -61 -36 5 0 1 -7 -7 -16 -30 -30 -3 -105 46
-125 75 -31 148 32 148 128 0 78 -56 136 -153 157 -166 38 -308 -53 -352 -224
-16 -66 -6 -202 16 -216 5 -3 9 -14 9 -25 0 -10 5 -19 10 -19 6 0 10 -6 10
-14 0 -19 101 -122 129 -131 11 -3 21 -11 21 -17 0 -5 7 -8 15 -4 8 3 15 2 15
-3 0 -8 20 -14 90 -29 63 -13 223 -2 261 19 9 4 19 5 23 2 3 -3 6 -1 6 5 0 7
9 12 20 12 11 0 20 4 20 9 0 5 11 12 24 15 13 3 44 25 70 49 25 24 46 42 46
39 0 -4 17 21 39 54 37 57 57 101 53 117 -1 4 3 7 9 7 6 0 9 7 5 15 -3 8 -2
15 3 15 4 0 6 12 3 28 l-5 27 29 -32 c16 -17 34 -37 40 -45 22 -25 113 -108
119 -108 4 0 12 -6 19 -12 15 -15 42 -36 116 -87 57 -39 60 -46 47 -114 -13
-61 -16 -65 -50 -60 -49 8 -205 8 -267 0 -110 -15 -310 -91 -310 -118 0 -5 -6
-9 -14 -9 -21 0 -148 -131 -175 -181 -13 -24 -34 -63 -47 -86 -13 -24 -22 -43
-19 -43 2 0 -3 -16 -11 -35 -17 -42 -41 -143 -48 -205 -12 -107 -8 -184 18
-317 3 -13 1 -24 -5 -24 -14 -2 -22 -5 -54 -18 -33 -14 -148 -51 -174 -56 -9
-2 -34 -8 -56 -13 -54 -15 -122 -25 -167 -26 -21 -1 -38 -3 -38 -6 0 -8 -256
-4 -315 5 -27 4 -58 7 -67 7 -10 -1 -18 3 -18 8 0 5 -6 7 -13 4 -17 -6 -185
46 -271 85 -169 77 -324 212 -416 365 -13 21 -38 73 -56 115 l-34 76 0 -137
c0 -79 4 -138 9 -138 5 0 13 -9 16 -20 4 -11 18 -32 31 -45 14 -14 22 -25 19
-25 -3 0 23 -29 58 -64 69 -69 194 -164 245 -185 18 -8 32 -17 32 -22 0 -5 7
-9 15 -9 9 0 33 -9 54 -20 21 -10 41 -16 45 -13 3 4 6 1 6 -5 0 -7 11 -12 25
-12 14 0 25 -4 25 -8 0 -5 6 -9 13 -9 6 -1 39 -8 72 -17 120 -34 221 -51 360
-61 109 -9 338 -5 350 5 6 5 15 7 19 3 8 -9 66 -11 66 -3 0 3 10 6 23 6 28 1
124 12 157 19 25 5 50 10 101 20 24 4 31 -2 67 -58 60 -94 149 -193 217 -242
15 -11 32 -25 39 -30 37 -33 192 -117 225 -122 8 -1 17 -5 20 -10 3 -4 13 -10
21 -12 32 -7 35 -8 50 -14 8 -4 26 -9 40 -12 14 -2 48 -10 75 -15 74 -16 85
-18 138 -24 27 -3 53 -8 58 -11 5 -4 9 -1 9 6 0 7 4 8 13 2 15 -11 322 -4 322
8 0 1 18 3 40 4 22 2 40 4 40 5 0 1 11 3 25 6 14 2 32 7 40 11 8 3 22 7 30 8
30 6 64 15 96 25 19 6 39 8 45 4 8 -4 9 -3 5 4 -4 7 -1 12 8 12 8 0 27 5 43
12 15 6 30 12 33 12 7 2 100 45 123 57 10 5 23 7 29 3 7 -4 8 -3 4 4 -4 7 -1
12 8 12 9 0 16 4 16 9 0 8 27 19 42 17 4 -1 14 8 22 19 9 11 16 16 16 11 0 -5
9 1 20 14 11 13 20 20 20 16 0 -7 9 0 66 52 19 17 40 32 45 32 6 0 8 4 5 8 -2
4 9 17 25 27 16 11 29 25 29 32 0 7 9 17 21 23 11 7 18 14 15 17 -2 3 6 15 19
28 14 12 22 25 18 28 -3 4 -1 7 5 7 9 0 12 125 12 497 l0 496 -27 36 c-24 32
-75 90 -111 127 -7 8 -18 14 -23 14 -5 0 -9 5 -9 10 0 12 -50 59 -63 60 -4 0
-21 13 -38 29 -16 16 -67 53 -112 82 -45 28 -94 60 -109 70 -15 11 -30 19 -33
19 -3 0 -23 11 -44 24 -21 14 -42 22 -45 19 -3 -4 -6 -1 -6 5 0 10 -38 30 -78
44 -25 8 -41 36 -35 63 3 17 6 42 6 58 0 15 5 27 10 27 5 0 6 -7 3 -16 -3 -8
1 -28 9 -43 15 -29 34 -41 63 -41 18 1 124 50 107 50 -5 0 2 8 15 17 14 10 30
18 35 18 6 0 10 6 10 13 0 8 8 19 17 26 10 7 15 16 11 19 -3 4 -2 7 4 7 5 0
21 21 34 48 13 26 27 49 32 50 4 2 7 12 7 22 0 10 5 22 11 25 6 4 8 13 5 21
-3 7 -1 16 5 19 5 4 7 10 4 15 -3 5 -1 11 5 15 5 3 10 19 10 35 0 16 5 32 10
35 8 5 8 11 0 20 -6 7 -7 16 -2 19 9 5 13 45 15 158 1 41 6 69 13 72 7 3 15
18 19 35 4 17 11 31 16 31 5 0 8 3 8 8 -1 4 0 9 1 12 1 3 3 14 5 25 2 11 11
54 20 95 17 79 17 137 2 158 -15 19 -52 14 -73 -9 -56 -64 -87 -65 -203 -8
-99 47 -253 95 -272 83 -5 -3 -9 -1 -9 3 0 5 -11 10 -25 11 -14 1 -37 2 -51 3
-15 1 -32 12 -42 28 -9 14 -19 28 -22 31 -3 3 -16 22 -29 43 -12 20 -26 37
-30 37 -4 0 -14 12 -23 28 -9 15 -49 59 -88 97 -101 98 -100 97 -155 135 -28
19 -52 37 -55 40 -8 8 -42 28 -95 56 -27 15 -51 30 -53 35 -2 5 -10 9 -18 9
-7 0 -40 12 -71 27 -84 38 -128 54 -162 60 -14 2 -32 8 -40 13 -9 4 -61 17
-116 29 -91 19 -120 24 -225 38 -49 6 -479 10 -485 4z m92 -194 c6 -4 14 -3
18 3 4 6 12 7 18 3 7 -4 17 -8 22 -9 6 -1 30 -4 55 -7 52 -7 135 -24 135 -27
0 -1 8 -3 17 -5 24 -4 91 -26 103 -34 6 -3 15 -6 22 -7 20 -3 188 -87 191 -96
2 -4 9 -8 15 -8 7 0 25 -11 41 -25 16 -14 32 -25 35 -25 3 0 21 -14 40 -30 18
-17 38 -30 42 -30 5 0 9 -7 9 -15 0 -8 4 -15 10 -15 5 0 26 -19 47 -42 21 -22
48 -51 61 -64 12 -13 22 -28 22 -34 0 -6 7 -13 15 -16 8 -4 15 -10 15 -15 0
-5 14 -28 30 -51 17 -22 30 -46 30 -52 0 -6 -29 -26 -65 -45 -36 -18 -65 -37
-65 -42 0 -5 -5 -9 -11 -9 -24 0 -204 -204 -191 -218 1 -1 -5 -19 -13 -40 -25
-58 -42 -151 -40 -224 0 -38 -2 -68 -5 -68 -3 0 -16 14 -30 30 -14 17 -30 30
-37 30 -7 0 -13 4 -13 8 0 7 -116 86 -130 88 -3 0 -26 10 -52 22 -51 23 -162
57 -218 67 -73 13 -86 15 -140 19 -30 2 -59 5 -65 6 -5 1 -13 2 -17 1 -4 0
-65 -3 -135 -5 -71 -2 -135 -5 -143 -7 -11 -3 -15 5 -16 26 0 34 34 125 47
125 5 0 9 7 9 15 0 8 9 23 19 32 22 18 19 34 -16 80 -56 76 -61 105 -63 328 0
131 -5 215 -12 229 -11 21 -65 71 -77 71 -3 0 -11 3 -17 7 -6 4 -25 9 -42 10
-30 2 -30 17 -1 22 8 1 28 5 44 9 72 16 127 24 207 31 15 1 29 4 32 7 7 7 251
4 263 -4z m1718 -691 c11 -7 25 -15 30 -16 43 -10 195 -129 195 -153 0 -4 8
-17 18 -28 29 -30 62 -105 79 -179 12 -50 7 -186 -11 -260 -12 -53 -43 -110
-75 -138 -30 -25 -85 -52 -110 -52 -9 0 -32 -9 -52 -19 l-35 -19 0 134 c1 117
5 142 19 132 2 -2 11 3 20 10 9 8 21 11 27 7 5 -3 10 -2 10 4 0 5 9 8 19 6 16
-3 19 1 15 28 -10 78 -85 326 -114 379 -6 10 -10 25 -10 33 0 8 -5 15 -12 15
-6 0 -8 3 -5 7 4 3 0 17 -8 30 -9 13 -13 23 -9 23 4 0 1 6 -5 14 -14 17 -23
56 -13 56 4 0 16 -6 27 -14z m-576 -251 c12 -37 19 -70 16 -75 -4 -6 -1 -10 4
-10 6 0 10 -3 9 -7 -1 -7 9 -83 19 -128 2 -11 6 -40 9 -64 2 -24 7 -47 10 -52
3 -5 -1 -9 -8 -9 -14 0 -44 39 -40 53 1 4 -2 7 -7 7 -23 0 -78 224 -62 255 3
5 6 18 8 30 2 17 9 53 12 63 4 11 12 -7 30 -63z m-279 -1204 c19 -2 37 -7 38
-12 2 -5 14 -9 26 -9 32 0 70 -43 61 -69 -12 -39 -58 -113 -64 -104 -3 5 -24
17 -45 27 -53 25 -141 26 -197 1 -47 -20 -143 -110 -134 -126 4 -5 2 -9 -4 -9
-9 0 -24 -65 -26 -115 -2 -36 15 -99 40 -148 22 -44 24 -77 6 -77 -4 0 -16 -8
-27 -18 -31 -29 -204 -143 -204 -135 0 5 -4 1 -10 -7 -5 -8 -11 -12 -14 -9
-16 16 -40 251 -27 264 3 3 6 25 7 48 3 46 11 94 21 117 3 8 8 24 10 35 6 31
36 95 45 95 4 0 7 3 7 8 -3 19 2 33 10 28 5 -3 12 1 15 10 4 10 2 13 -7 8 -6
-4 -3 2 8 13 11 11 23 19 28 16 4 -2 7 1 7 7 0 15 15 29 73 69 43 29 105 60
124 62 5 0 13 5 19 10 13 11 72 21 122 22 17 0 32 5 32 10 0 6 5 6 13 0 6 -5
28 -10 47 -12z m740 -96 c7 -8 19 -15 26 -15 8 0 14 -3 14 -8 0 -4 18 -18 40
-32 22 -14 40 -28 40 -32 0 -5 6 -8 13 -8 8 0 24 -11 37 -25 13 -14 28 -25 33
-25 5 0 18 -10 28 -22 11 -11 19 -19 19 -15 0 8 65 -49 123 -108 112 -114 159
-215 161 -350 1 -128 -20 -215 -75 -314 -40 -70 -120 -171 -136 -171 -7 0 -13
-4 -13 -9 0 -4 -21 -25 -47 -44 -27 -20 -52 -40 -58 -45 -52 -41 -261 -124
-345 -136 -19 -3 -48 -8 -65 -11 -48 -10 -194 -12 -265 -3 -36 5 -78 10 -95
12 -16 2 -37 6 -45 9 -18 6 -71 20 -85 22 -53 8 -238 105 -304 160 -35 29
-151 148 -151 156 0 3 -9 16 -20 29 -11 12 -17 27 -14 31 3 5 0 9 -6 9 -6 0
-8 5 -5 10 4 6 11 8 16 5 5 -4 15 -3 22 2 6 4 17 8 22 9 6 1 24 8 40 15 17 6
39 14 49 16 11 2 25 8 33 14 7 6 13 8 13 3 0 -5 4 -3 9 4 4 7 14 15 22 16 8 2
25 8 39 13 14 6 29 8 34 5 5 -3 6 0 2 6 -6 11 -2 13 19 12 3 -1 13 6 21 15 9
8 20 13 25 10 5 -4 9 -1 9 4 0 6 7 11 15 11 8 0 15 5 15 11 0 5 5 7 10 4 6 -3
10 -1 10 5 0 6 5 8 10 5 6 -3 10 -2 10 3 0 9 36 29 54 30 5 0 12 6 17 13 9 15
25 19 99 24 30 2 55 4 55 5 0 1 11 3 25 6 14 2 39 9 55 14 17 6 33 10 37 10
16 1 123 63 136 78 6 9 12 12 12 8 0 -5 23 16 50 45 28 29 50 59 50 66 0 7 4
13 9 13 8 0 24 37 22 53 -1 4 3 7 9 7 9 0 25 83 23 125 -1 34 -13 108 -18 113
-2 3 4 17 13 31 10 14 29 47 43 74 25 49 38 57 59 32z m-762 -121 c40 -19 48
-33 25 -40 -43 -14 -62 -28 -69 -53 -8 -30 -8 -28 0 -62 4 -21 -1 -34 -29 -63
-19 -21 -35 -39 -35 -41 0 -11 -90 -91 -98 -86 -14 10 -39 66 -36 84 1 9 -1
17 -5 17 -11 0 -6 92 6 115 6 11 12 23 12 27 6 36 40 78 62 78 7 0 9 3 5 7
-11 11 46 31 90 32 22 1 55 -6 72 -15z m332 -394 c0 -5 -5 -10 -11 -10 -5 0
-7 5 -4 10 3 6 8 10 11 10 2 0 4 -4 4 -10z"/>
</g>
</svg>
